<?xml version="1.0" encoding="utf-8"?>
<!-- Generator: Adobe Illustrator 26.0.3, SVG Export Plug-In . SVG Version: 6.00 Build 0)  -->
<svg version="1.0" id="Layer_1" xmlns="http://www.w3.org/2000/svg" xmlns:xlink="http://www.w3.org/1999/xlink" x="0px" y="0px"
	 viewBox="0 0 241.9 166.9" style="enable-background:new 0 0 241.9 166.9;" xml:space="preserve">
<style type="text/css">
	.st0{fill:#003E74;}
</style>
<path class="st0" d="M24,79.4V59h4v20.4H24z M33.9,66.6L33.9,66.6c1.2-1.3,2.8-2.1,4.5-2.1c1.7-0.1,3.2,0.7,4.2,2.1
	c1.3-1.2,2.9-2,4.7-2.1c3.2,0,4.9,2,4.9,5.3v9.6h-3.8v-8.9c0-1.7-0.6-3.4-2.4-3.4c-1.9,0-3,1.1-3,3.6v8.7h-3.8v-8.9
	c0-2-0.9-3.4-2.5-3.4c-1.8,0-2.9,1.2-2.9,3.7v8.6h-3.8V64.8h3.7V66.6z M61.7,66.9c2.2,0,3.2,2.5,3.2,5s-0.8,5.6-3.4,5.6
	c-2,0-3.5-2.1-3.5-5.1C58,68.9,59.3,66.8,61.7,66.9L61.7,66.9z M58,64.9h-3.8v21.8H58v-9.1c1,1.3,2.6,2.1,4.2,2.2
	c4,0,6.6-4.1,6.6-7.9c0-3.2-1.8-7.3-6.3-7.3c-1.8,0-3.5,0.9-4.5,2.4H58V64.9z M74.3,70.4c0-2,0.9-3.7,3.1-3.7c1.9,0,2.6,1.5,2.5,3.7
	H74.3z M83.4,72.4c0.3-4.3-1.6-8-6-8c-3.9-0.1-7.1,2.9-7.2,6.8c0,0.2,0,0.4,0,0.6c0,4.8,3.2,7.9,7.5,7.9c2,0,3.9-0.6,5.5-1.6l-1.1-2
	c-1.1,0.8-2.4,1.2-3.8,1.2c-2.4-0.1-4.2-2.1-4.1-4.5c0-0.1,0-0.2,0-0.3H83.4z M89,67.4L89,67.4l0.8-1.1c0.5-0.6,1.3-1.8,2.4-1.8
	c1,0.1,1.9,0.5,2.6,1.3l-1.4,2.7c-0.5-0.3-1.2-0.5-1.8-0.5c-1.3,0-2.6,1.1-2.6,4.2v7.2h-3.8V64.8H89C89,64.8,89,67.4,89,67.4z
	 M99.8,64.9v14.6H96V64.8L99.8,64.9z M95.6,60.4c0-1.2,1-2.2,2.2-2.2c1.3-0.1,2.4,0.9,2.5,2.2c0.1,1.3-0.9,2.4-2.2,2.5
	c-1.3,0.1-2.4-0.9-2.5-2.2C95.6,60.6,95.6,60.5,95.6,60.4z M110,71c0.3,4.3-1.7,6.2-3.2,6.2c-1.1-0.1-1.8-1.1-1.7-2.2c0,0,0,0,0,0
	c0-1.7,0.9-2.8,2.8-3.3L110,71z M110,77.3c-0.1,0.7,0,1.5,0.3,2.2h4c-0.4-1.1-0.6-2.3-0.6-3.6v-6c0-4.6-3.2-5.4-5.8-5.4
	c-2,0-3.9,0.7-5.4,2l1.2,1.8c1-1,2.4-1.5,3.8-1.5c1.3,0,2.4,0.9,2.6,2.2l-3.3,1c-3.3,1-5.2,2.5-5.2,5.3c-0.2,2.3,1.5,4.3,3.8,4.4
	c0.1,0,0.2,0,0.2,0c1.4-0.2,2.6-0.8,3.6-1.8L110,77.3z M116.1,79.4V58h3.8v21.4H116.1z M144.7,62.7c-1.3-0.7-2.7-1.1-4.1-1.1
	c-4.1,0-7,2.9-7,7.6c0,4.8,3.3,7.7,7.1,7.7c1.4,0,2.8-0.3,4-1l1.1,2.5c-1.6,0.9-3.4,1.4-5.3,1.4c-6.9,0-11.2-4.7-11.2-10.7
	c0-5.6,4.3-10.4,11.3-10.4c1.9,0,3.7,0.6,5.3,1.5L144.7,62.7z"/>
<path class="st0" d="M153.3,77.6c-2.7,0-3.4-3.1-3.4-5.6s0.8-5.3,3.4-5.3s3.5,2.9,3.5,5.3S156.1,77.6,153.3,77.6z M153.3,79.8
	c4.5,0,7.5-3.3,7.5-7.8c0-4.1-3.3-7.4-7.4-7.4c-4.1,0-7.4,3.3-7.4,7.4c0,0,0,0,0,0C145.9,76.4,148.9,79.8,153.3,79.8z M162.4,79.4
	V58h3.8v21.4L162.4,79.4z M168.5,79.4V58h3.8v21.4L168.5,79.4z M177.9,70.4c0-2,0.9-3.7,3.1-3.7c1.9,0,2.6,1.5,2.5,3.7H177.9z
	 M187.1,72.5c0.3-4.3-1.6-8-6-8c-3.9-0.1-7.1,2.9-7.2,6.8c0,0.2,0,0.4,0,0.6c0,4.8,3.2,7.9,7.5,7.9c2,0,3.9-0.6,5.6-1.6l-1.1-2
	c-1.1,0.7-2.4,1.2-3.8,1.2c-2.4-0.1-4.3-2.1-4.2-4.5c0-0.1,0-0.2,0-0.3L187.1,72.5z M208.7,70.4c0-2,0.9-3.7,3.1-3.7
	c1.9,0,2.6,1.5,2.5,3.7H208.7z M217.8,72.5c0.3-4.3-1.6-8-6-8c-3.9-0.1-7.1,2.9-7.2,6.8c0,0.2,0,0.4,0,0.6c0,4.8,3.2,7.9,7.5,7.9
	c2,0,3.9-0.6,5.6-1.6l-1.1-2c-1.1,0.7-2.4,1.2-3.8,1.2c-2.4,0-4.2-2-4.1-4.8L217.8,72.5z M195.8,66.9c2.3,0,3.4,2.4,3.4,4.9
	c0,2.9-1.1,5.7-3.6,5.7c-2.2,0-3.3-2.7-3.3-5.6S193.4,66.8,195.8,66.9L195.8,66.9z M203,64.9h-3.8v1.8h-0.1c-1-1.4-2.5-2.2-4.2-2.1
	c-3.9,0-6.6,3.7-6.6,7.5c0,4.7,2.5,7.8,6.2,7.8c1.8,0,3.5-0.9,4.6-2.4h0.1v1.9c0,3.4-1.9,4.9-4.4,4.9c-1.7,0.1-3.4-0.4-4.9-1.3
	l-0.7,2.4c1.8,0.9,3.9,1.4,5.9,1.4c4.2,0,7.9-2.1,7.9-8.6L203,64.9L203,64.9z M24,88.1h4v17.6h8.5v2.7H24V88.1z M58.6,95.7
	c1.4-1.3,3.2-2.1,5.1-2.1c3.5,0,5.2,1.9,5.2,5.5v9.4h-3.8v-8.9c0-2-0.9-3.4-3-3.4c-1.8-0.1-3.4,1.3-3.5,3.2c0,0.2,0,0.3,0,0.5v8.7
	h-3.8V94h3.8L58.6,95.7z M78.7,95.9c2.4,0,3.6,2.4,3.6,4.9c0,2.9-1.1,5.7-3.8,5.7c-2.3,0-3.4-2.7-3.4-5.6S76.1,95.9,78.7,95.9z
	 M82.3,108.5h3.8V87.1h-3.8v8.5h-0.1c-1.1-1.4-2.8-2.1-4.6-2c-4,0-6.8,3.7-6.8,7.4c0,4.7,2.6,7.8,6.5,7.8c1.9,0,3.7-0.9,4.9-2.5h0.1
	V108.5z M95.9,106.7c-2.8,0-3.6-3.1-3.6-5.7c0-2.4,0.9-5.3,3.6-5.3s3.6,2.9,3.6,5.3C99.6,103.6,98.8,106.7,95.9,106.7z M95.9,108.9
	c4.1,0.2,7.6-3,7.8-7.1c0-0.2,0-0.5,0-0.7c0-4.7-3.8-7.4-7.8-7.4s-7.8,2.7-7.8,7.4c-0.2,4.1,3,7.6,7.1,7.8
	C95.5,108.9,95.7,108.9,95.9,108.9z M109.6,95.7c1.4-1.3,3.2-2.1,5.1-2.1c3.5,0,5.2,1.9,5.2,5.5v9.4h-3.8v-8.9c0-2-0.9-3.4-3-3.4
	c-1.8-0.1-3.4,1.3-3.5,3.2c0,0.2,0,0.3,0,0.5v8.7h-3.8V94h3.8L109.6,95.7z M44.9,106.7c-2.8,0-3.6-3.1-3.6-5.7
	c0-2.4,0.9-5.3,3.6-5.3s3.6,2.9,3.6,5.3C48.5,103.6,47.8,106.7,44.9,106.7z M44.9,108.9c4.1,0.2,7.6-3,7.8-7.1c0-0.2,0-0.5,0-0.7
	c0-4.7-3.8-7.4-7.8-7.4s-7.8,2.7-7.8,7.4c-0.2,4.1,3,7.6,7.2,7.8C44.5,108.9,44.7,108.9,44.9,108.9z"/>
</svg>
